# xmcd
#
# Track frame offsets: 
#        151
#        12874
#        26524
#        41082
#        55340
#        69152
#        82982
#        97045
#        111099
#        124765
#        139498
#        153944
#        168730
#        182518
#        196551
#        210572
#        235090
#        247840
#
# Disc length: 3464 seconds
#
# Revision: 2
# Processed by: cddbd v1.5.2PL0 Copyright (c) Steve Scherf et al.
# Submitted via: ExactAudioCopy v0.95b2
#
DISCID=e60d8612
DTITLE=Reverend Gary Davis - Meet You at the Station
DYEAR=1935
DGENRE=Blues
TTITLE0=I'm Throwin' Up My Hands (Ain't Gonna Work Here No More)
TTITLE1=Cross And Evil Woman Blues
TTITLE2=I Am The True Vine
TTITLE3=I Am The Light Of The World
TTITLE4=O Lord, Search My Heart
TTITLE5=I Saw The Light
TTITLE6=You Can Go Home
TTITLE7=Twelve Gates To The City
TTITLE8=Have More Faith In Jesus
TTITLE9=You Got To Go Down
TTITLE10=I Belong To The Band - Hallelujah!
TTITLE11=The Great Change In Me
TTITLE12=Lord, I Wish I Could See
TTITLE13=Lord, Stand By Me
TTITLE14=The Angel's Message To Me
TTITLE15=Civil War March
TTITLE16=I Cannot Bear My Burden By Myself
TTITLE17=I'm Gonna Meet You At The Station
EXTD=The Vintage Recordings (1035-1949)
EXTT0=
EXTT1=
EXTT2=
EXTT3=
EXTT4=
EXTT5=
EXTT6=
EXTT7=
EXTT8=
EXTT9=
EXTT10=
EXTT11=
EXTT12=
EXTT13=
EXTT14=
EXTT15=
EXTT16=
EXTT17=
PLAYORDER=
